# xmcd
#
# Track frame offsets:
# 150
# 14134
# 31280
# 47640
# 66652
# 84842
# 99102
# 112542
# 129662
# 143267
# 158675
# 172865
#
# Disc length: 2476 seconds
#
#
# Revision: 0
# Processed by: cddbd v1.5.1PL0 Copyright (c) Steve Scherf et al.
# Submitted via: FreeRIP 2.91 
#
DISCID=8709aa0c
DTITLE=Flying norwegians - Still riding
DYEAR=1996
DGENRE=Country
TTITLE0=Stone cold ashes
TTITLE1=I'll do anything
TTITLE2=Mississippi
TTITLE3=Still riding
TTITLE4=Lonesome cowboy
TTITLE5=See you everywhere
TTITLE6=Have you ever
TTITLE7=Closee to you
TTITLE8=I'll take care of you
TTITLE9=Gypsy at heart
TTITLE10=Boxing glove
TTITLE11=Caroussel
EXTD=
EXTT0=
EXTT1=
EXTT2=
EXTT3=
EXTT4=
EXTT5=
EXTT6=
EXTT7=
EXTT8=
EXTT9=
EXTT10=
EXTT11=
PLAYORDER=
